<?xml version="1.0" standalone="no"?>
<!DOCTYPE svg PUBLIC "-//W3C//DTD SVG 20010904//EN"
 "http://www.w3.org/TR/2001/REC-SVG-20010904/DTD/svg10.dtd">
<svg version="1.0" xmlns="http://www.w3.org/2000/svg"
 width="500.000000pt" height="500.000000pt" viewBox="0 0 500.000000 500.000000"
 preserveAspectRatio="xMidYMid meet">

<g transform="translate(0.000000,500.000000) scale(0.100000,-0.100000)"
fill="#000000" stroke="none">
<path d="M3655 4498 c-27 -27 -81 -68 -120 -91 -119 -69 -223 -154 -391 -319
-102 -100 -168 -158 -181 -158 -11 0 -53 15 -94 34 -192 87 -553 94 -949 17
-165 -33 -179 -30 -265 59 -81 84 -230 168 -400 227 -143 50 -300 92 -309 83
-5 -5 -2 -33 7 -67 17 -62 32 -201 42 -376 11 -187 62 -321 178 -464 35 -43
69 -93 76 -111 21 -51 9 -109 -38 -182 -94 -144 -138 -267 -147 -410 -17 -250
119 -482 389 -664 171 -115 307 -301 412 -561 48 -121 76 -165 132 -215 96
-84 219 -127 338 -117 192 17 339 112 430 278 22 40 60 94 83 121 52 57 181
145 283 192 291 135 507 375 596 662 26 85 27 98 27 294 1 195 -1 210 -28 309
-16 57 -39 131 -52 164 -13 34 -24 67 -24 74 0 7 22 45 49 85 91 134 141 283
141 423 0 39 -12 124 -25 190 -14 66 -30 174 -35 240 -15 176 -48 337 -68 334
-4 0 -29 -23 -57 -51z m-105 -272 c0 -3 -32 -42 -71 -88 -120 -141 -181 -264
-226 -458 -14 -58 -32 -121 -40 -142 -22 -53 -70 -94 -143 -124 -292 -117
-543 -317 -685 -544 -55 -88 -55 -56 1 54 97 192 270 338 568 481 166 80 217
122 234 192 5 21 16 71 25 110 23 102 71 220 118 294 23 34 80 100 127 146 87
82 92 87 92 79z m-2285 -36 c69 -24 132 -60 181 -102 70 -62 145 -195 172
-308 6 -25 13 -56 17 -70 3 -14 10 -95 15 -181 12 -212 10 -209 184 -390 118
-122 128 -139 35 -58 -41 35 -102 86 -136 113 -102 80 -111 104 -123 327 -15
272 -57 402 -172 525 -65 69 -114 102 -206 140 -70 29 -47 31 33 4z m2398
-121 c27 -97 34 -285 13 -388 -20 -96 -55 -188 -75 -196 -42 -16 -53 71 -26
195 27 121 15 178 -23 109 -50 -92 -92 -104 -92 -26 0 24 5 59 12 78 22 64
151 300 162 296 6 -2 19 -33 29 -68z m-2386 -150 c37 -39 81 -92 97 -117 35
-56 46 -136 23 -167 -9 -11 -17 -18 -19 -15 -2 3 -16 24 -31 48 -39 60 -53 51
-48 -29 10 -136 4 -146 -46 -81 -55 73 -77 144 -77 257 -1 84 14 175 29 175 2
0 34 -32 72 -71z m1583 -747 c36 -36 54 -113 39 -168 -15 -55 -93 -129 -146
-137 -101 -17 -173 42 -173 141 0 35 6 45 37 71 45 37 51 38 55 9 2 -19 8 -22
31 -20 31 4 37 -14 7 -23 -39 -12 -38 -89 2 -132 44 -47 68 -18 68 80 0 35 -5
89 -11 121 -8 43 -7 61 2 72 18 22 58 16 89 -14z m-1158 -21 c27 -24 31 -32
21 -42 -15 -15 -17 -49 -3 -49 18 0 10 -18 -10 -23 -34 -9 -21 -107 14 -107
22 0 44 33 58 90 8 30 19 55 26 55 17 0 79 -61 84 -83 8 -30 -18 -80 -54 -102
-25 -16 -45 -20 -85 -17 -136 10 -222 180 -142 281 27 34 51 33 91 -3z m1
-400 c91 -61 167 -128 167 -147 0 -25 -24 -15 -47 20 -12 19 -52 56 -89 82
-135 99 -158 131 -31 45z m1288 -8 c-46 -9 -316 -105 -390 -139 -74 -34 -111
-42 -111 -24 0 25 97 64 300 120 63 17 126 35 140 40 14 5 39 8 55 8 26 -1 27
-1 6 -5z m-1334 -89 c99 -32 163 -64 163 -80 0 -20 -15 -17 -59 12 -44 29
-211 84 -256 84 -21 0 -26 3 -16 9 19 12 82 3 168 -25z m1238 -54 c-16 -4 -72
-13 -124 -20 -51 -6 -125 -23 -164 -36 -75 -26 -107 -30 -107 -14 0 10 66 31
175 54 100 22 113 23 185 24 49 0 58 -2 35 -8z m-1206 -50 c126 -14 131 -33 6
-23 -55 4 -171 7 -258 6 -161 -2 -200 7 -79 18 111 10 242 9 331 -1z m1338
-46 c14 -6 -39 -9 -140 -9 -108 0 -196 -6 -265 -18 -57 -10 -108 -15 -114 -11
-17 11 11 21 92 33 41 6 86 13 100 15 41 7 303 -1 327 -10z m-1209 -32 c3 -11
-23 -12 -139 -7 -79 3 -183 2 -231 -2 -88 -9 -126 1 -45 11 23 3 53 7 67 10
14 2 97 3 184 2 122 -1 160 -4 164 -14z m962 -42 c66 -11 205 -49 199 -54 -2
-2 -51 5 -109 16 -82 15 -134 18 -237 15 -105 -4 -133 -2 -133 9 0 7 8 15 18
17 33 9 198 7 262 -3z m-955 -9 c11 -19 -32 -28 -159 -35 -71 -4 -141 -9 -155
-11 -23 -5 -22 -3 5 10 61 28 296 55 309 36z m0 -60 c-6 -5 -28 -14 -50 -21
-22 -7 -57 -21 -78 -32 -22 -11 -41 -17 -44 -14 -6 6 49 34 112 57 56 21 74
24 60 10z m1018 -25 c88 -23 177 -59 177 -71 0 -2 -26 5 -57 16 -134 47 -223
62 -365 62 -76 0 -138 3 -138 7 0 19 26 22 150 17 99 -4 161 -12 233 -31z
m-483 -179 c35 -8 67 -10 85 -5 43 12 71 2 84 -30 14 -34 3 -98 -25 -140 l-18
-27 -12 49 c-17 64 -39 85 -110 102 -124 29 -367 3 -401 -43 -7 -9 -16 -38
-19 -65 -4 -27 -10 -51 -15 -54 -12 -7 -48 54 -55 93 -3 17 -3 41 1 53 7 23
73 56 140 70 65 13 285 11 345 -3z m14 -101 c37 -16 61 -58 71 -128 4 -27 13
-48 19 -48 22 0 54 43 86 114 17 37 34 66 37 63 4 -5 -40 -274 -53 -319 -8
-26 -20 -22 -34 13 -8 18 -18 28 -26 25 -7 -3 -16 0 -20 5 -3 6 -22 18 -42 26
-31 13 -45 13 -128 -3 -101 -19 -87 -22 -161 32 -21 15 -25 15 -55 -3 -19 -11
-45 -41 -60 -68 -15 -28 -30 -50 -35 -50 -10 0 -42 84 -42 114 -1 16 3 21 13
18 24 -10 36 16 36 80 0 67 13 108 39 119 15 6 166 19 274 22 26 1 62 -4 81
-12z m126 -448 c17 -63 5 -107 -33 -123 -59 -24 -223 -37 -331 -26 -120 12
-136 23 -136 93 0 26 3 48 8 48 4 -1 16 -15 27 -32 30 -48 76 -70 156 -76 121
-8 238 29 259 83 6 14 14 36 20 50 13 34 17 32 30 -17z m-95 -197 c17 -7 15
-11 -23 -36 -48 -32 -118 -48 -172 -39 -42 7 -113 43 -114 59 -2 16 273 30
309 16z"/>
</g>
</svg>
